<svg xmlns="http://www.w3.org/2000/svg" version="1.1" xmlns:xlink="http://www.w3.org/1999/xlink" xmlns:svgjs="http://svgjs.com/svgjs" viewBox="0 0 48 48" width="48" height="48"><g transform="matrix(2,0,0,2,0,0)"><path d="M15.026,19.957A5.57,5.57,0,0,0,17.3,15.589c0-3.312-3.222-6-7.2-6a8.453,8.453,0,0,0-2.322.325A3.856,3.856,0,0,0,5.969,8.531.5.5,0,0,0,5.306,9v2.14A5.4,5.4,0,0,0,3.5,13.5h-1A.5.5,0,0,0,2,14v3a.5.5,0,0,0,.5.5h1a5.958,5.958,0,0,0,2.018,2.687l-.626,1.7a1.2,1.2,0,1,0,2.251.83l.547-1.484a8.45,8.45,0,0,0,5.2-.113l.589,1.6a1.2,1.2,0,1,0,2.251-.83Z" fill="none" stroke="#ff2c64" stroke-linecap="round" stroke-linejoin="round"></path><path d="M17.3,15.589c1.6,0,2.4-.8,2.4-2" fill="none" stroke="#ff2c64" stroke-linecap="round" stroke-linejoin="round"></path><path d="M6.754,14a.25.25,0,1,1-.25.25.25.25,0,0,1,.25-.25" fill="none" stroke="#ff2c64" stroke-linecap="round" stroke-linejoin="round"></path><path d="M10.747,6.773a5.646,5.646,0,1,1,9.375,3.581" fill="none" stroke="#ff2c64" stroke-linecap="round" stroke-linejoin="round"></path><path d="M16.504 3L16.504 2" fill="none" stroke="#ff2c64" stroke-linecap="round" stroke-linejoin="round"></path><path d="M18,3H15.971a1.342,1.342,0,0,0-.5,2.587l2.064.826A1.342,1.342,0,0,1,17.037,9H15" fill="none" stroke="#ff2c64" stroke-linecap="round" stroke-linejoin="round"></path><path d="M16.504 10L16.504 9" fill="none" stroke="#ff2c64" stroke-linecap="round" stroke-linejoin="round"></path></g></svg>