<svg xmlns="http://www.w3.org/2000/svg" version="1.1" xmlns:xlink="http://www.w3.org/1999/xlink" xmlns:svgjs="http://svgjs.com/svgjs" viewBox="0 0 48 48" width="48" height="48"><g transform="matrix(2,0,0,2,0,0)"><path d="M11.5,12.5h-9a2,2,0,0,1-2-2v-8a2,2,0,0,1,2-2h13a2,2,0,0,1,2,2v4" fill="none" stroke="#ff2c64" stroke-linecap="round" stroke-linejoin="round"></path><path d="M0.5 3.495L17.5 3.495" fill="none" stroke="#ff2c64" stroke-linecap="round" stroke-linejoin="round"></path><path d="M8.5 5.495L3.5 5.495" fill="none" stroke="#ff2c64" stroke-linecap="round" stroke-linejoin="round"></path><path d="M15.5 5.495L13.5 5.495" fill="none" stroke="#ff2c64" stroke-linecap="round" stroke-linejoin="round"></path><path d="M6.5 7.495L3.5 7.495" fill="none" stroke="#ff2c64" stroke-linecap="round" stroke-linejoin="round"></path><path d="M14.500 15.496 L23.500 15.496 L23.500 23.495 L14.500 23.495 Z" fill="none" stroke="#ff2c64" stroke-linecap="round" stroke-linejoin="round"></path><path d="M17.750 19.558 A1.250 1.250 0 1 0 20.250 19.558 A1.250 1.250 0 1 0 17.750 19.558 Z" fill="none" stroke="#ff2c64" stroke-linecap="round" stroke-linejoin="round"></path><path d="M21.5,14a2.5,2.5,0,1,0-5,0v1.5h5Z" fill="none" stroke="#ff2c64" stroke-linecap="round" stroke-linejoin="round"></path></g></svg>