<svg xmlns="http://www.w3.org/2000/svg" version="1.1" xmlns:xlink="http://www.w3.org/1999/xlink" xmlns:svgjs="http://svgjs.com/svgjs" viewBox="0 0 48 48" width="48" height="48"><g transform="matrix(2,0,0,2,0,0)"><path d="M0.500 2.004 L23.500 2.004 L23.500 22.004 L0.500 22.004 Z" fill="none" stroke="#ff2c64" stroke-linecap="round" stroke-linejoin="round"></path><path d="M0.5 7.004L23.5 7.004" fill="none" stroke="#ff2c64" stroke-linecap="round" stroke-linejoin="round"></path><path d="M4,4.254a.25.25,0,1,1-.25.25A.25.25,0,0,1,4,4.254" fill="none" stroke="#ff2c64" stroke-linecap="round" stroke-linejoin="round"></path><path d="M7,4.254a.25.25,0,1,1-.25.25A.25.25,0,0,1,7,4.254" fill="none" stroke="#ff2c64" stroke-linecap="round" stroke-linejoin="round"></path><path d="M10,4.254a.25.25,0,1,1-.25.25.25.25,0,0,1,.25-.25" fill="none" stroke="#ff2c64" stroke-linecap="round" stroke-linejoin="round"></path><path d="M12.5 16.012L12.5 10.004" fill="none" stroke="#ff2c64" stroke-linecap="round" stroke-linejoin="round"></path><path d="M15.5 13.004L12.5 16.012 9.5 13.004" fill="none" stroke="#ff2c64" stroke-linecap="round" stroke-linejoin="round"></path><path d="M7.5,16.012V17.5A.5.5,0,0,0,8,18h9a.5.5,0,0,0,.5-.5V16.012" fill="none" stroke="#ff2c64" stroke-linecap="round" stroke-linejoin="round"></path></g></svg>