<svg xmlns="http://www.w3.org/2000/svg" version="1.1" xmlns:xlink="http://www.w3.org/1999/xlink" xmlns:svgjs="http://svgjs.com/svgjs" viewBox="0 0 48 48" width="48" height="48"><g transform="matrix(2,0,0,2,0,0)"><path d="M21,10a1.5,1.5,0,0,1-1.5,1.5H18v-3h1.5A1.5,1.5,0,0,1,21,10Z" fill="none" stroke="#ff2c64" stroke-linecap="round" stroke-linejoin="round"></path><path d="M11,9a1.089,1.089,0,0,0-1-.5A1.089,1.089,0,0,0,9,9" fill="none" stroke="#ff2c64" stroke-linecap="round" stroke-linejoin="round"></path><path d="M15,9a1.089,1.089,0,0,0-1-.5A1.089,1.089,0,0,0,13,9" fill="none" stroke="#ff2c64" stroke-linecap="round" stroke-linejoin="round"></path><path d="M7.5,17.327v2.979a.5.5,0,0,0,.658.475L12,19.5,8.918,17.294a1,1,0,0,0-.9-.136L3.1,18.755A4,4,0,0,0,.5,22.5v1" fill="none" stroke="#ff2c64" stroke-linecap="round" stroke-linejoin="round"></path><path d="M16.5,17.234v3.072a.5.5,0,0,1-.658.475L12,19.5l3.181-2.272a1,1,0,0,1,.9-.135c1.332.447,4.823,1.662,4.823,1.662A4,4,0,0,1,23.5,22.5v1" fill="none" stroke="#ff2c64" stroke-linecap="round" stroke-linejoin="round"></path><path d="M12 23.5L12 19.5" fill="none" stroke="#ff2c64" stroke-linecap="round" stroke-linejoin="round"></path><path d="M18,11.5a5,5,0,0,1-4,2H12.5" fill="none" stroke="#ff2c64" stroke-linecap="round" stroke-linejoin="round"></path><path d="M16.2,7.7,15.858,6c-4,0-4-2-4-2h-.084s0,2-4,2L7.435,7.7" fill="none" stroke="#ff2c64" stroke-linecap="round" stroke-linejoin="round"></path><path d="M18,8.5h-.02c.5-2.986.5-8-6-8s-6.5,5.014-6,8c-.874.437-.6,2.4.479,2.889a1,1,0,0,1,.574.746c.443,2.644,3.555,4.365,4.947,4.365a5.235,5.235,0,0,0,2.633-1.048" fill="none" stroke="#ff2c64" stroke-linecap="round" stroke-linejoin="round"></path></g></svg>