<svg xmlns="http://www.w3.org/2000/svg" version="1.1" xmlns:xlink="http://www.w3.org/1999/xlink" xmlns:svgjs="http://svgjs.com/svgjs" viewBox="0 0 48 48" width="48" height="48"><g transform="matrix(2,0,0,2,0,0)"><path d="M1.5,20.5h7a1,1,0,0,1,1,1V23a.5.5,0,0,1-.5.5H1A.5.5,0,0,1,.5,23V21.5A1,1,0,0,1,1.5,20.5Z" fill="none" stroke="#ff2c64" stroke-linecap="round" stroke-linejoin="round"></path><path d="M6.251,10.059A1.25,1.25,0,0,1,8.019,8.291l4.6,4.6a1.25,1.25,0,1,1-1.768,1.768Z" fill="none" stroke="#ff2c64" stroke-linecap="round" stroke-linejoin="round"></path><path d="M13.676,2.634A1.25,1.25,0,0,1,15.444.866l4.6,4.6A1.25,1.25,0,0,1,18.272,7.23Z" fill="none" stroke="#ff2c64" stroke-linecap="round" stroke-linejoin="round"></path><path d="M9.146 4.76H17.146V10.76H9.146z" fill="none" stroke="#ff2c64" stroke-linecap="round" stroke-linejoin="round" transform="translate(-1.637 11.568) rotate(-45)"></path><path d="M14.56,10.589l6.364,7.071a1.5,1.5,0,0,0,2.121-2.121L15.974,9.175" fill="none" stroke="#ff2c64" stroke-linecap="round" stroke-linejoin="round"></path></g></svg>